<svg id="Layer_1" data-name="Layer 1" xmlns="http://www.w3.org/2000/svg" viewBox="0 0 95.1106 95.1087">
  <g>
    <path id="logoMark" d="M47.51,28.1412a6.8493,6.8493,0,0,1,4.9169,1.8767,6.5647,6.5647,0,0,1,0,9.3692,7.4662,7.4662,0,0,1-9.8572,0A6.18,6.18,0,0,1,40.6322,34.7,6.2309,6.2309,0,0,1,42.57,30.0179,6.8043,6.8043,0,0,1,47.51,28.1412Z" style="fill: #532faf"/>
    <path id="logoMark-2" data-name="logoMark" d="M90.1106,47.5553a42.5574,42.5574,0,0,1-72.5285,30.21H54.604c3.0121,0,6.3854-.1782,8.5811-1.4778a10.2091,10.2091,0,0,0,4.8653-6.55,13.7989,13.7989,0,0,0,.38-3.3123c0-4.5744-3.5094-11.8277-12.935-11.8277H43.7991a4.06,4.06,0,0,1-2.6273-.8164,2.5887,2.5887,0,0,1-1.0275-2.0784A3.3019,3.3019,0,0,1,41.89,48.7376l.0188-.0094.014.0047a18.95,18.95,0,0,0,5.5878.8492,16.19,16.19,0,0,0,11.4055-4.26A13.9647,13.9647,0,0,0,63.5041,34.7a14.1255,14.1255,0,0,0-2.9323-8.8156l-.0046-.0141V25.861c.6146-3.256,5.4986-10.6125,12.2687-12.5361A42.7348,42.7348,0,0,1,90.1106,47.5553Z" style="fill: #532faf"/>
    <path id="logoMark-3" data-name="logoMark" d="M36.1446,24.034A14.0766,14.0766,0,0,0,31.6214,34.7,13.883,13.883,0,0,0,36.13,45.2494l.0365.0365-.0365.0292a9.4288,9.4288,0,0,0-3.32,3.6039,10.0342,10.0342,0,0,0-1.2621,4.9026,8.2749,8.2749,0,0,0,2.8234,6.5733,11.2528,11.2528,0,0,0,7.6676,2.48H55.3318c2.4,0,3.9469,1.3934,3.9469,3.5529a3.4,3.4,0,0,1-.89,2.3856l-.013.0136a3.1993,3.1993,0,0,1-2.3177.913H11.245A42.5655,42.5655,0,0,1,64.9984,8.728c-5.3549,3.6113-8.8046,8.0918-10.024,12.6286l-.0146.0364-.0292-.0146a17.7068,17.7068,0,0,0-7.42-1.5977A16.0748,16.0748,0,0,0,36.1446,24.034Z" style="fill: #532faf"/>
  </g>
</svg>
