<svg width="4" height="16" viewBox="0 0 4 16" fill="none" xmlns="http://www.w3.org/2000/svg">
<path d="M2.00008 8.83301C2.46032 8.83301 2.83342 8.45991 2.83342 7.99967C2.83342 7.53944 2.46032 7.16634 2.00008 7.16634C1.53984 7.16634 1.16675 7.53944 1.16675 7.99967C1.16675 8.45991 1.53984 8.83301 2.00008 8.83301Z" stroke="#344054" stroke-width="1.66667" stroke-linecap="round" stroke-linejoin="round"/>
<path d="M2.00008 2.99967C2.46032 2.99967 2.83342 2.62658 2.83342 2.16634C2.83342 1.7061 2.46032 1.33301 2.00008 1.33301C1.53984 1.33301 1.16675 1.7061 1.16675 2.16634C1.16675 2.62658 1.53984 2.99967 2.00008 2.99967Z" stroke="#344054" stroke-width="1.66667" stroke-linecap="round" stroke-linejoin="round"/>
<path d="M2.00008 14.6663C2.46032 14.6663 2.83342 14.2932 2.83342 13.833C2.83342 13.3728 2.46032 12.9997 2.00008 12.9997C1.53984 12.9997 1.16675 13.3728 1.16675 13.833C1.16675 14.2932 1.53984 14.6663 2.00008 14.6663Z" stroke="#344054" stroke-width="1.66667" stroke-linecap="round" stroke-linejoin="round"/>
</svg>
