<svg width="124" height="32" viewBox="0 0 124 32" fill="none" xmlns="http://www.w3.org/2000/svg">
    <g clip-path="url(#clip0)">
        <path d="M51.2806 8.18779C49.6924 6.64209 47.7699 5.89014 45.4295 5.89014C43.0891 5.89014 41.1666 6.64209 39.5785 8.18779C37.9904 9.73348 37.1963 11.6134 37.1963 13.911C37.1963 16.1669 37.9904 18.0886 39.5785 19.5925C41.1666 21.1382 43.0891 21.8901 45.4295 21.8901C47.7699 21.8901 49.6924 21.1382 51.2806 19.5925C52.8687 18.0468 53.621 16.1669 53.621 13.911C53.621 11.6134 52.8269 9.73348 51.2806 8.18779ZM48.3968 16.9189C47.6028 17.7126 46.5997 18.1303 45.3877 18.1303C44.1757 18.1303 43.1727 17.7126 42.3786 16.9189C41.5846 16.1251 41.1666 15.1225 41.1666 13.911C41.1666 12.6995 41.5846 11.6969 42.3786 10.9032C43.1727 10.1095 44.1757 9.6917 45.3877 9.6917C46.5997 9.6917 47.6028 10.1095 48.3968 10.9032C49.1909 11.6969 49.567 12.6995 49.567 13.911C49.6088 15.0807 49.1909 16.1251 48.3968 16.9189Z" fill="#9E3DFF"/>
        <path d="M67.9552 7.51938C66.8686 6.43322 65.4059 5.89014 63.6088 5.89014C61.6027 5.89014 59.9728 6.55854 58.7608 7.93713V6.26612H54.874V21.5142H58.7608V13.1591C58.7608 12.1147 59.0951 11.2792 59.7638 10.6525C60.4325 10.0259 61.2684 9.6917 62.355 9.6917C63.358 9.6917 64.1939 9.98413 64.779 10.6108C65.4059 11.2374 65.6984 12.0729 65.6984 13.0755V21.5142H69.627V11.8223C69.627 10.0259 69.0419 8.56377 67.9552 7.51938Z" fill="#9E3DFF"/>
        <path d="M84.7561 8.18779C83.168 6.64209 81.2455 5.89014 78.9051 5.89014C76.5647 5.89014 74.6004 6.64209 73.0541 8.18779C71.4659 9.73348 70.6719 11.6134 70.6719 13.911C70.6719 16.1669 71.4659 18.0886 73.0541 19.5925C74.6422 21.1382 76.5647 21.8901 78.9051 21.8901C81.2455 21.8901 83.168 21.1382 84.7561 19.5925C86.3443 18.0468 87.0965 16.1669 87.0965 13.911C87.1383 11.6134 86.3443 9.73348 84.7561 8.18779ZM81.9142 16.9189C81.1201 17.7126 80.1171 18.1303 78.9051 18.1303C77.6931 18.1303 76.6901 17.7126 75.896 16.9189C75.1019 16.1251 74.684 15.1225 74.684 13.911C74.684 12.6995 75.1019 11.6969 75.896 10.9032C76.6901 10.1095 77.6931 9.6917 78.9051 9.6917C80.1171 9.6917 81.1201 10.1095 81.9142 10.9032C82.7083 11.6969 83.0844 12.6995 83.0844 13.911C83.0844 15.0807 82.7083 16.1251 81.9142 16.9189Z" fill="#9E3DFF"/>
        <path d="M100.888 0V8.06266C99.5507 6.60052 97.9208 5.89034 95.9147 5.89034C93.7833 5.89034 92.028 6.6423 90.607 8.18799C89.1861 9.73368 88.4756 11.6136 88.4756 13.9112C88.4756 16.1671 89.1861 18.0888 90.607 19.5927C92.028 21.1384 93.7833 21.8903 95.9147 21.8903C97.879 21.8903 99.5507 21.1802 100.888 19.718V21.5561H104.775V0H100.888ZM99.6761 16.9191C98.8821 17.7128 97.879 18.1306 96.667 18.1306C95.455 18.1306 94.452 17.7128 93.6579 16.9191C92.8639 16.1253 92.4459 15.1227 92.4459 13.9112C92.4459 12.6997 92.8639 11.6971 93.6579 10.9034C94.452 10.1097 95.455 9.69191 96.667 9.69191C97.879 9.69191 98.8821 10.1097 99.6761 10.9034C100.47 11.6971 100.888 12.6997 100.888 13.9112C100.888 15.0809 100.47 16.0836 99.6761 16.9191Z" fill="#9E3DFF"/>
        <path d="M111.63 10.1515C112.34 9.56665 113.134 9.27422 114.095 9.27422C115.057 9.27422 115.851 9.56665 116.561 10.1515C117.272 10.6946 117.731 11.4465 117.982 12.4074H110.209C110.501 11.4465 110.961 10.7364 111.63 10.1515ZM113.928 18.0888C111.964 18.0888 110.668 16.7938 110.25 15.2899V15.2063H122.12C122.161 14.7886 122.203 14.3291 122.203 13.8695C122.203 11.5719 121.451 9.6502 119.905 8.14628C118.358 6.64237 116.478 5.84863 114.179 5.84863C112.674 5.84863 111.295 6.18284 110.041 6.89302C108.788 7.6032 107.826 8.52226 107.116 9.73375C106.656 10.5275 106.322 11.4048 106.155 12.3238C106.071 12.7834 106.029 13.2847 106.029 13.7442C106.029 13.9531 106.029 14.162 106.071 14.3708C106.155 15.6241 106.489 16.752 107.116 17.7964C107.116 17.8382 107.158 17.8382 107.158 17.88C107.241 18.0471 107.367 18.2559 107.534 18.423C108.955 20.3865 111.253 21.5144 113.677 21.5144H121.994L124.042 18.0471H113.928V18.0888Z" fill="#9E3DFF"/>
        <path d="M35.9835 13.911C35.9835 11.6134 35.2312 9.6917 33.6849 8.18779C32.1385 6.68387 30.2578 5.89014 27.9592 5.89014C26.4547 5.89014 25.0755 6.22434 23.8217 6.93452C22.5679 7.64471 21.6067 8.56377 20.8962 9.77525C20.1857 10.9867 19.8096 12.3236 19.8096 13.8275C19.8096 15.3314 20.1857 16.71 20.8962 17.9215C21.6485 19.1747 22.6515 20.1356 23.9471 20.8457C25.2427 21.5559 26.7054 21.8901 28.2936 21.8901C29.7145 21.8901 31.0101 21.6395 32.2221 21.0964C33.3087 20.5951 34.27 19.9267 35.0222 19.0494L32.2639 16.9606C31.8878 17.3366 31.428 17.6708 30.8429 17.9215C30.0907 18.2974 29.2966 18.4645 28.3771 18.4645C27.2905 18.4645 26.3293 18.1721 25.577 17.629C24.8247 17.0442 24.2814 16.2922 24.0307 15.3314H35.8581C35.9835 14.8719 35.9835 14.4123 35.9835 13.911ZM24.0725 12.4071C24.3232 11.488 24.7829 10.7361 25.4934 10.1512C26.2039 9.56638 27.0398 9.27395 27.9592 9.27395C28.9205 9.27395 29.7145 9.56638 30.425 10.1512C31.1355 10.6943 31.5952 11.4463 31.846 12.4071H24.0725Z" fill="#9E3DFF"/>
        <path d="M14.6694 21.5142H9.40344C8.94372 21.5142 8.52579 21.3889 8.23323 21.1383C7.94068 20.8876 7.77351 20.5952 7.77351 20.2192C7.77351 19.6343 8.02427 19.2166 8.56758 18.8824C9.40344 19.133 10.2393 19.2584 11.0752 19.2584C13.123 19.2584 14.8365 18.6317 16.2157 17.3367C17.5949 16.0416 18.2636 14.4542 18.2636 12.5743C18.2636 11.0704 17.8456 9.73355 16.9262 8.60562C16.968 7.47768 17.971 6.39152 19.6427 6.34974V2.79883C15.965 2.79883 14.5858 5.34713 14.3768 6.60039C13.332 6.14087 12.2036 5.89021 11.0334 5.89021C8.98551 5.89021 7.27199 6.51684 5.93462 7.81188C4.55544 9.10692 3.88675 10.6944 3.88675 12.6161C3.88675 14.496 4.55544 16.0834 5.93462 17.3785C5.30772 17.7544 4.8062 18.2975 4.43006 19.0077C4.05393 19.6761 3.84496 20.4281 3.84496 21.2218C3.84496 22.4333 4.26289 23.4359 5.09875 24.1879C5.97641 24.9398 7.14661 25.3158 8.56758 25.3158H14.544C15.547 25.3158 16.2993 25.8589 16.2993 26.9033C16.2993 27.321 16.1321 27.697 15.9232 27.9477C15.6306 28.2401 15.2545 28.3654 14.8783 28.3654H2.17324L0 31.9999H15.3381C16.2993 31.9999 17.2605 31.791 18.0964 31.2897C19.1412 30.6631 19.9353 29.7022 20.2696 28.3236C20.395 27.8641 20.4368 27.3628 20.4368 26.8197C20.4786 23.1435 17.1769 21.5142 14.6694 21.5142ZM8.81834 10.4437C9.40344 9.85888 10.1975 9.56645 11.0752 9.56645C11.9946 9.56645 12.7469 9.85888 13.332 10.4437C13.9589 11.0286 14.2514 11.7388 14.2514 12.6161C14.2514 13.4933 13.9589 14.2035 13.332 14.7884C12.7469 15.3732 11.9528 15.6657 11.0752 15.6657C10.1557 15.6657 9.40344 15.3732 8.81834 14.7884C8.23323 14.2035 7.94068 13.4933 7.94068 12.6161C7.89889 11.7388 8.19144 11.0286 8.81834 10.4437Z" fill="#9E3DFF"/>
        <path d="M109.372 28.1147L107.241 31.6657H28.085L30.2164 28.1147H109.372Z" fill="#9E3DFF"/>
        <path d="M119.027 28.0732L116.854 31.7077H111.588L113.719 28.0732H119.027Z" fill="#9E3DFF"/>
    </g>
    <defs>
        <clipPath id="clip0">
            <rect width="124" height="32" fill="white"/>
        </clipPath>
    </defs>
</svg>
