<svg width="121" height="348" viewBox="0 0 121 348" fill="none" xmlns="http://www.w3.org/2000/svg">
<g opacity="0.4">
<path d="M167.851 135.291C140.606 135.291 118.52 163.498 118.52 198.292C118.52 233.087 140.606 261.293 167.851 261.293C195.095 261.293 217.181 233.087 217.181 198.292C217.181 163.498 195.095 135.291 167.851 135.291Z" stroke="#C30B18" stroke-width="1.51436" stroke-miterlimit="10"/>
<path d="M167.204 129.791C138.149 129.791 114.596 159.869 114.596 196.971C114.596 234.074 138.149 264.151 167.204 264.151C196.258 264.151 219.812 234.074 219.812 196.971C219.812 159.869 196.258 129.791 167.204 129.791Z" stroke="#BD0C1B" stroke-width="1.46877" stroke-miterlimit="10"/>
<path d="M166.562 124.291C135.701 124.291 110.683 156.239 110.683 195.649C110.683 235.06 135.701 267.008 166.562 267.008C197.424 267.008 222.442 235.06 222.442 195.649C222.442 156.239 197.424 124.291 166.562 124.291Z" stroke="#B80D1D" stroke-width="1.42319" stroke-miterlimit="10"/>
<path d="M165.917 118.788C133.248 118.788 106.765 152.608 106.764 194.326C106.764 236.044 133.248 269.863 165.917 269.863C198.586 269.863 225.069 236.044 225.069 194.326C225.069 152.608 198.586 118.788 165.917 118.788Z" stroke="#B30E1F" stroke-width="1.37761" stroke-miterlimit="10"/>
<path d="M165.271 113.289C130.794 113.289 102.846 148.979 102.846 193.005C102.846 237.031 130.794 272.721 165.271 272.721C199.747 272.721 227.695 237.031 227.695 193.005C227.695 148.979 199.747 113.289 165.271 113.289Z" stroke="#AD0F21" stroke-width="1.33203" stroke-miterlimit="10"/>
<path d="M164.629 107.778C128.346 107.778 98.9324 145.344 98.9323 191.684C98.9323 238.023 128.346 275.589 164.629 275.589C200.912 275.589 230.326 238.023 230.326 191.684C230.326 145.344 200.913 107.778 164.629 107.778Z" stroke="#A81024" stroke-width="1.28644" stroke-miterlimit="10"/>
<path d="M163.983 102.277C125.893 102.277 95.0141 141.713 95.0141 190.361C95.0141 239.008 125.893 278.445 163.983 278.445C202.074 278.445 232.952 239.008 232.952 190.361C232.952 141.713 202.074 102.277 163.983 102.277Z" stroke="#A21126" stroke-width="1.24086" stroke-miterlimit="10"/>
<path d="M163.337 96.7768C123.439 96.7768 91.0956 138.084 91.0956 189.04C91.0955 239.995 123.439 281.302 163.337 281.302C203.235 281.302 235.578 239.995 235.578 189.04C235.578 138.084 203.235 96.7768 163.337 96.7768Z" stroke="#9D1228" stroke-width="1.19021" stroke-miterlimit="10"/>
<path d="M162.696 91.2759C120.991 91.2759 87.1822 134.454 87.1822 187.718C87.1822 240.981 120.991 284.159 162.696 284.159C204.401 284.159 238.209 240.981 238.209 187.718C238.21 134.454 204.401 91.2759 162.696 91.2759Z" stroke="#97132A" stroke-width="1.14463" stroke-miterlimit="10"/>
<path d="M162.05 85.7635C118.538 85.7635 83.2639 130.813 83.2639 186.384C83.2639 241.955 118.538 287.004 162.05 287.004C205.562 287.004 240.836 241.955 240.836 186.384C240.836 130.813 205.562 85.7635 162.05 85.7635Z" stroke="#92142C" stroke-width="1.09905" stroke-miterlimit="10"/>
<path d="M161.403 80.2645C116.084 80.2645 79.3448 127.185 79.3448 185.064C79.3448 242.942 116.084 289.863 161.403 289.863C206.722 289.863 243.461 242.942 243.461 185.064C243.461 127.185 206.723 80.2645 161.403 80.2645Z" stroke="#8C152F" stroke-width="1.05347" stroke-miterlimit="10"/>
<path d="M160.762 74.7638C113.635 74.7638 75.4316 123.555 75.4316 183.742C75.4316 243.928 113.635 292.719 160.762 292.719C207.889 292.719 246.093 243.928 246.093 183.742C246.093 123.555 207.889 74.7638 160.762 74.7638Z" stroke="#871631" stroke-width="1.00788" stroke-miterlimit="10"/>
<path d="M160.116 69.2621C111.179 69.2621 71.5082 119.924 71.5082 182.419C71.5082 244.913 111.179 295.575 160.116 295.575C209.053 295.575 248.724 244.913 248.724 182.419C248.724 119.924 209.053 69.2621 160.116 69.2621Z" stroke="#811733" stroke-width="0.962301" stroke-miterlimit="10"/>
<path d="M159.47 63.7637C108.726 63.7637 67.5897 116.297 67.5897 181.099C67.5896 245.902 108.726 298.434 159.47 298.434C210.214 298.434 251.35 245.902 251.35 181.099C251.35 116.297 210.214 63.7637 159.47 63.7637Z" stroke="#7C1835" stroke-width="0.911653" stroke-miterlimit="10"/>
<path d="M158.828 58.2619C106.277 58.2619 63.676 112.666 63.6759 179.776C63.6759 246.886 106.277 301.29 158.828 301.29C211.38 301.29 253.981 246.886 253.981 179.776C253.981 112.666 211.38 58.2619 158.828 58.2619Z" stroke="#761937" stroke-width="0.866071" stroke-miterlimit="10"/>
<path d="M158.182 52.7601C103.824 52.7601 59.7576 109.035 59.7576 178.453C59.7576 247.871 103.824 304.146 158.182 304.146C212.541 304.146 256.607 247.871 256.607 178.453C256.607 109.035 212.541 52.7601 158.182 52.7601Z" stroke="#711A3A" stroke-width="0.820488" stroke-miterlimit="10"/>
<path d="M157.536 47.2601C101.37 47.2601 55.8391 105.406 55.8391 177.132C55.839 248.858 101.37 307.003 157.536 307.003C213.702 307.003 259.233 248.858 259.233 177.132C259.233 105.406 213.702 47.2601 157.536 47.2601Z" stroke="#6B1B3C" stroke-width="0.774905" stroke-miterlimit="10"/>
<path d="M156.895 41.7386C98.9222 41.7386 51.9259 101.76 51.9258 175.799C51.9258 249.839 98.9221 309.86 156.895 309.86C214.868 309.86 261.864 249.839 261.864 175.799C261.864 101.76 214.868 41.7386 156.895 41.7386Z" stroke="#661C3E" stroke-width="0.729323" stroke-miterlimit="10"/>
<path d="M156.248 36.2387C96.4682 36.2387 48.0068 98.1307 48.0068 174.478C48.0068 250.826 96.4682 312.718 156.248 312.718C216.028 312.718 264.49 250.826 264.49 174.478C264.49 98.1307 216.028 36.2387 156.248 36.2387Z" stroke="#611D40" stroke-width="0.68374" stroke-miterlimit="10"/>
<path d="M155.602 30.737C94.0149 30.737 44.0884 94.4998 44.0884 173.155C44.0884 251.811 94.0148 315.574 155.602 315.574C217.19 315.574 267.116 251.811 267.116 173.155C267.116 94.4998 217.19 30.737 155.602 30.737Z" stroke="#5B1E43" stroke-width="0.638157" stroke-miterlimit="10"/>
<path d="M154.961 25.2381C91.566 25.2381 40.1745 90.8719 40.1745 171.835C40.1745 252.799 91.5659 318.432 154.961 318.432C218.355 318.432 269.747 252.799 269.747 171.835C269.747 90.8719 218.355 25.2381 154.961 25.2381Z" stroke="#561F45" stroke-width="0.58751" stroke-miterlimit="10"/>
<path d="M154.315 19.7362C89.1132 19.7362 36.2566 87.2409 36.2566 170.512C36.2566 253.783 89.1131 321.288 154.315 321.288C219.517 321.288 272.373 253.783 272.373 170.512C272.373 87.2409 219.517 19.7362 154.315 19.7362Z" stroke="#502047" stroke-width="0.541927" stroke-miterlimit="10"/>
<path d="M153.668 14.234C86.6566 14.234 32.3327 83.6096 32.3327 169.189C32.3327 254.768 86.6565 324.143 153.668 324.143C220.68 324.143 275.004 254.768 275.004 169.189C275.004 83.6096 220.68 14.234 153.668 14.234Z" stroke="#4B2149" stroke-width="0.496345" stroke-miterlimit="10"/>
<path d="M153.028 8.73495C84.2085 8.73495 28.4195 79.9814 28.4195 167.868C28.4195 255.755 84.2084 327.002 153.027 327.002C221.847 327.002 277.636 255.755 277.636 167.868C277.636 79.9814 221.847 8.73495 153.028 8.73495Z" stroke="#45224B" stroke-width="0.450762" stroke-miterlimit="10"/>
<path d="M152.382 3.23397C81.7552 3.23397 24.5013 76.3513 24.5012 166.546C24.5012 256.741 81.7551 329.858 152.381 329.858C223.008 329.858 280.262 256.741 280.262 166.546C280.262 76.3513 223.008 3.23398 152.382 3.23397Z" stroke="#40234E" stroke-width="0.405179" stroke-miterlimit="10"/>
<path d="M151.741 -2.2771C79.307 -2.2771 20.588 72.7111 20.588 165.214C20.5879 257.716 79.3069 332.705 151.74 332.705C224.174 332.705 282.893 257.716 282.893 165.214C282.893 72.7111 224.174 -2.2771 151.741 -2.2771Z" stroke="#3A2450" stroke-width="0.359597" stroke-miterlimit="10"/>
<path d="M151.094 -7.77774C76.8531 -7.77775 16.669 69.0814 16.669 163.892C16.6689 258.702 76.853 335.562 151.094 335.562C225.335 335.562 285.519 258.702 285.519 163.892C285.519 69.0814 225.335 -7.77774 151.094 -7.77774Z" stroke="#352552" stroke-width="0.314014" stroke-miterlimit="10"/>
<path d="M150.448 -13.2772C74.3995 -13.2772 12.7504 65.4527 12.7504 162.571C12.7504 259.689 74.3994 338.419 150.447 338.419C226.495 338.419 288.145 259.689 288.145 162.571C288.145 65.4527 226.496 -13.2772 150.448 -13.2772Z" stroke="#2F2654" stroke-width="0.263366" stroke-miterlimit="10"/>
<path d="M149.807 -18.7793C71.9516 -18.7793 8.83744 61.8216 8.83742 161.248C8.83739 260.674 71.9515 341.275 149.807 341.275C227.662 341.275 290.776 260.674 290.776 161.248C290.776 61.8216 227.662 -18.7793 149.807 -18.7793Z" stroke="#2A2757" stroke-width="0.217784" stroke-miterlimit="10"/>
<path d="M149.161 -24.2893C69.4981 -24.2893 4.91889 58.1872 4.91887 159.927C4.91884 261.667 69.498 344.144 149.16 344.144C228.823 344.144 293.402 261.667 293.402 159.927C293.402 58.1873 228.823 -24.2893 149.161 -24.2893Z" stroke="#242859" stroke-width="0.172201" stroke-miterlimit="10"/>
<path d="M148.514 -29.7905C67.0443 -29.7905 1.00004 54.5569 1.00001 158.605C0.999989 262.653 67.0442 347 148.514 347C229.984 347 296.028 262.653 296.028 158.605C296.028 54.5569 229.984 -29.7905 148.514 -29.7905Z" stroke="#1F295B" stroke-width="0.126619" stroke-miterlimit="10"/>
</g>
</svg>
