<svg width="295" height="250" viewBox="0 0 295 250" fill="none" xmlns="http://www.w3.org/2000/svg">
<g style="mix-blend-mode:screen">
<g style="mix-blend-mode:screen" opacity="0.98">
<path style="mix-blend-mode:screen" opacity="0.98" d="M344.717 232.711C352.542 223.391 362.224 215.965 372.82 211.155L417.527 190.83L417.644 191.208L372.917 211.524C362.394 216.292 352.78 223.664 345.011 232.919C337.384 242.303 331.903 253.207 329.101 264.569L317.147 312.875L316.748 312.838L328.681 264.557C331.51 253.123 337.034 242.151 344.717 232.711Z" fill="url(#paint0_linear)"/>
</g>
<g style="mix-blend-mode:screen" opacity="0.96">
<path style="mix-blend-mode:screen" opacity="0.96" d="M340.496 229.303C347.636 220.66 358.164 212.679 368.703 207.887L413.471 187.525L413.601 187.931L368.842 208.274C358.374 213.041 347.905 220.985 340.837 229.541C333.764 238.103 327.87 249.957 325.07 261.26L313.109 309.577L312.68 309.532L324.637 261.22C327.437 249.874 333.373 237.926 340.496 229.303Z" fill="url(#paint1_linear)"/>
</g>
<g style="mix-blend-mode:screen" opacity="0.94">
<path style="mix-blend-mode:screen" opacity="0.94" d="M336.294 225.9C343.171 217.576 354.021 209.416 364.629 204.62L409.406 184.221L409.532 184.676L364.738 205.052C354.223 209.831 343.453 217.929 336.647 226.166C329.821 234.429 323.834 246.613 321.024 257.962L309.04 306.309L308.573 306.266L320.558 257.919C323.367 246.501 329.413 234.228 336.294 225.9Z" fill="url(#paint2_linear)"/>
</g>
<g style="mix-blend-mode:screen" opacity="0.92">
<path style="mix-blend-mode:screen" opacity="0.92" d="M332.07 222.487C338.704 214.457 349.868 206.154 360.495 201.311L405.346 180.92L405.481 181.408L360.634 201.794C350.078 206.594 339.012 214.832 332.419 222.811C325.839 230.774 319.762 243.283 316.935 254.68L304.961 303.06L304.465 303.01L316.456 254.609C319.3 243.131 325.427 230.527 332.07 222.487Z" fill="url(#paint3_linear)"/>
</g>
<g style="mix-blend-mode:screen" opacity="0.9">
<path style="mix-blend-mode:screen" opacity="0.9" d="M327.844 219.074C335.233 210.134 347.522 202.041 356.386 198.024L401.289 177.615L401.428 178.132L356.533 198.54C347.72 202.548 335.557 210.549 328.24 219.403C320.914 228.267 315.262 241.825 312.904 251.335L300.901 299.778L300.376 299.729L312.374 251.291C314.744 241.705 320.447 228.025 327.844 219.074Z" fill="url(#paint4_linear)"/>
</g>
<g style="mix-blend-mode:screen" opacity="0.88">
<path style="mix-blend-mode:screen" opacity="0.88" d="M323.634 215.673C330.826 206.97 343.526 198.722 352.278 194.747L397.229 174.315L397.381 174.86L352.434 195.287C343.753 199.237 331.163 207.405 324.046 216.016C316.9 224.663 311.174 238.647 308.858 248.02L296.84 296.51L296.281 296.457L308.294 247.965C310.632 238.522 316.433 224.386 323.634 215.673Z" fill="url(#paint5_linear)"/>
</g>
<g style="mix-blend-mode:screen" opacity="0.86">
<path style="mix-blend-mode:screen" opacity="0.86" d="M319.394 212.248C326.122 204.109 338.955 195.624 348.155 191.447L393.168 171.004L393.325 171.588L348.316 192.017C339.191 196.163 326.467 204.56 319.819 212.602C313.163 220.655 307.209 234.803 304.779 244.688L292.75 293.219L292.161 293.159L304.194 244.666C306.667 234.721 312.662 220.393 319.394 212.248Z" fill="url(#paint6_linear)"/>
</g>
<g style="mix-blend-mode:screen" opacity="0.84">
<path style="mix-blend-mode:screen" opacity="0.84" d="M315.198 208.86C321.704 200.989 334.927 192.33 344.066 188.177L389.109 167.706L389.278 168.318L344.23 188.794C335.171 192.911 322.075 201.478 315.648 209.252C309.214 217.036 303.171 231.622 300.744 241.398L288.708 289.974L288.085 289.912L300.142 241.345C302.569 231.464 308.683 216.74 315.198 208.86Z" fill="url(#paint7_linear)"/>
</g>
<g style="mix-blend-mode:screen" opacity="0.82">
<path style="mix-blend-mode:screen" opacity="0.82" d="M310.983 205.455C317.112 198.042 330.545 189.167 339.964 184.895L385.06 164.413L385.245 165.057L340.158 185.545C330.81 189.792 317.529 198.553 311.48 205.87C305.427 213.192 299.222 227.998 296.72 238.085L284.664 286.713L284.003 286.644L296.059 238.016C298.57 227.833 304.85 212.874 310.983 205.455Z" fill="url(#paint8_linear)"/>
</g>
<g style="mix-blend-mode:screen" opacity="0.8">
<path style="mix-blend-mode:screen" opacity="0.8" d="M306.761 202.045C312.652 194.921 326.465 185.873 335.857 181.619L380.99 161.1L381.159 161.764L336.013 182.281C326.718 186.505 313.065 195.429 307.242 202.471C301.41 209.524 295.116 224.716 292.63 234.757L280.551 283.441L279.881 283.383L291.96 234.699C294.48 224.556 300.85 209.194 306.761 202.045Z" fill="url(#paint9_linear)"/>
</g>
<g style="mix-blend-mode:screen" opacity="0.78">
<path style="mix-blend-mode:screen" opacity="0.78" d="M302.545 198.641C308.639 191.272 323.404 182.102 331.745 178.33L376.932 157.801L377.122 158.501L331.956 179.013C323.707 182.76 309.086 191.809 303.084 199.066C297.075 206.333 290.822 222.518 288.616 231.421L276.547 280.122L275.835 280.053L287.9 231.349C290.11 222.389 296.447 206.015 302.545 198.641Z" fill="url(#paint10_linear)"/>
</g>
<g style="mix-blend-mode:screen" opacity="0.76">
<path style="mix-blend-mode:screen" opacity="0.76" d="M298.325 195.231C304.189 188.141 319.382 178.795 327.62 175.071L372.867 154.496L373.07 155.233L327.844 175.774C319.669 179.482 304.649 188.715 298.877 195.693C293.098 202.681 286.739 219.299 284.554 228.117L272.465 276.877L271.715 276.803L283.808 228.045C286.006 219.143 292.453 202.332 298.325 195.231Z" fill="url(#paint11_linear)"/>
</g>
<g style="mix-blend-mode:screen" opacity="0.75">
<path style="mix-blend-mode:screen" opacity="0.75" d="M294.109 191.826C299.612 185.173 314.956 175.656 323.528 171.764L368.811 151.191L369.018 151.957L323.743 172.52C315.26 176.375 300.093 185.764 294.683 192.305C289.268 198.851 282.773 215.642 280.503 224.797L268.399 273.605L267.623 273.526L279.724 224.732C282.018 215.477 288.598 198.489 294.109 191.826Z" fill="url(#paint12_linear)"/>
</g>
<g style="mix-blend-mode:screen" opacity="0.73">
<path style="mix-blend-mode:screen" opacity="0.73" d="M289.894 188.422C295.655 181.457 311.934 171.882 319.443 168.462L364.753 147.892L364.973 148.686L319.641 169.264C311.223 173.09 295.673 182.644 290.485 188.916C285.292 195.193 278.703 212.393 276.471 221.494L264.355 270.344L263.541 270.267L275.64 221.412C277.646 213.332 284.125 195.396 289.894 188.422Z" fill="url(#paint13_linear)"/>
</g>
<g style="mix-blend-mode:screen" opacity="0.71">
<path style="mix-blend-mode:screen" opacity="0.71" d="M285.672 185.012C291.207 178.322 307.915 168.553 315.315 165.195L360.685 144.588L360.909 145.412L315.547 166.009C308.227 169.322 291.717 178.973 286.288 185.527C280.854 192.095 274.357 210.262 272.402 218.16L260.271 267.055L259.432 266.975L271.563 218.079C273.539 210.104 280.129 191.712 285.672 185.012Z" fill="url(#paint14_linear)"/>
</g>
<g style="mix-blend-mode:screen" opacity="0.69">
<path style="mix-blend-mode:screen" opacity="0.69" d="M281.456 181.607C286.761 175.197 303.898 165.233 311.211 161.913L356.633 141.287L356.861 142.141L311.452 162.76C304.215 166.05 287.292 175.866 282.097 182.145C276.894 188.433 270.286 207.047 268.356 214.845L256.209 263.787L255.345 263.703L267.483 214.762C269.439 206.881 276.143 188.028 281.456 181.607Z" fill="url(#paint15_linear)"/>
</g>
<g style="mix-blend-mode:screen" opacity="0.67">
<path style="mix-blend-mode:screen" opacity="0.67" d="M277.24 178.2C282.402 171.962 299.682 161.995 307.106 158.619L352.566 137.982L352.795 138.853L307.351 159.505C299.72 162.973 282.744 172.913 277.898 178.76C273.056 184.612 266.342 203.302 264.297 211.534L252.132 260.501L251.225 260.415L263.382 211.432C265.385 203.433 272.074 184.443 277.24 178.2Z" fill="url(#paint16_linear)"/>
</g>
<g style="mix-blend-mode:screen" opacity="0.65">
<path style="mix-blend-mode:screen" opacity="0.65" d="M273.02 174.792C278.133 168.614 296.353 158.358 303.003 155.337L348.509 134.682L348.758 135.598L303.253 156.252C296.683 159.237 278.703 169.342 273.704 175.374C268.705 181.415 262.01 201.133 260.264 208.205L248.095 257.231L247.163 257.14L259.306 208.12C261.095 200.961 267.903 180.975 273.02 174.792Z" fill="url(#paint17_linear)"/>
</g>
<g style="mix-blend-mode:screen" opacity="0.63">
<path style="mix-blend-mode:screen" opacity="0.63" d="M268.805 171.386C273.691 165.483 292.345 155.027 298.9 152.053L344.452 131.377L344.71 132.325L299.158 153.002C292.683 155.939 274.278 166.234 269.51 171.986C264.742 177.747 257.936 197.921 256.185 204.921L244.01 253.991L243.043 253.899L255.219 204.828C256.987 197.747 263.914 177.295 268.805 171.386Z" fill="url(#paint18_linear)"/>
</g>
<g style="mix-blend-mode:screen" opacity="0.61">
<path style="mix-blend-mode:screen" opacity="0.61" d="M264.583 167.978C269.323 162.252 288.138 151.789 294.786 148.773L340.391 128.077L340.658 129.051L295.057 149.75C288.143 152.887 269.737 163.264 265.314 168.6C260.89 173.943 254.003 194.13 252.151 201.583L239.96 250.7L238.964 250.608L251.159 201.486C252.936 194.324 259.839 173.709 264.583 167.978Z" fill="url(#paint19_linear)"/>
</g>
<g style="mix-blend-mode:screen" opacity="0.59">
<path style="mix-blend-mode:screen" opacity="0.59" d="M260.369 164.574C265.009 158.969 284.718 148.203 290.684 145.49L336.316 124.764L336.596 125.774L290.968 146.504C283.955 149.69 265.406 160.063 261.129 165.22C256.852 170.386 249.993 190.713 248.111 198.272L235.909 247.439L234.841 247.338L247.047 198.175C248.677 191.729 255.725 170.183 260.369 164.574Z" fill="url(#paint20_linear)"/>
</g>
<g style="mix-blend-mode:screen" opacity="0.57">
<path style="mix-blend-mode:screen" opacity="0.57" d="M256.152 161.166C260.653 155.73 280.518 144.961 286.588 142.187L332.271 121.468L332.554 122.508L286.837 143.268C281.051 145.909 261.19 156.681 256.904 161.849C252.618 167.026 245.602 188.707 244.035 194.973L231.818 244.178L230.758 244.075L242.976 194.87C244.622 188.317 251.659 166.593 256.152 161.166Z" fill="url(#paint21_linear)"/>
</g>
<g style="mix-blend-mode:screen" opacity="0.55">
<path style="mix-blend-mode:screen" opacity="0.55" d="M251.931 157.758C256.197 152.606 276.514 141.627 282.47 138.92L328.21 118.168L328.507 119.237L282.771 139.983C277.072 142.57 256.814 153.513 252.738 158.427C248.674 163.334 241.539 185.482 240.014 191.62L227.794 240.865L226.679 240.785L238.891 191.507C240.508 185.11 247.656 162.92 251.931 157.758Z" fill="url(#paint22_linear)"/>
</g>
<g style="mix-blend-mode:screen" opacity="0.53">
<path style="mix-blend-mode:screen" opacity="0.53" d="M247.714 154.353C251.834 149.379 272.324 138.377 278.345 135.628L324.15 114.869L324.438 115.982L278.65 136.756C272.878 139.378 252.434 150.35 248.522 155.066C244.605 159.795 237.485 182.107 235.943 188.326L223.724 237.598L222.592 237.503L234.832 188.207C236.45 181.696 243.587 159.337 247.714 154.353Z" fill="url(#paint23_linear)"/>
</g>
<g style="mix-blend-mode:screen" opacity="0.51">
<path style="mix-blend-mode:screen" opacity="0.51" d="M243.498 150.948C247.673 145.907 269.384 134.566 274.254 132.356L320.093 111.564L320.403 112.696L274.563 133.488C268.321 136.319 247.936 147.329 244.339 151.663C240.742 155.997 233.587 178.274 231.91 184.996L219.659 234.334L218.506 234.222L230.756 184.875C232.054 179.638 239.315 155.999 243.498 150.948Z" fill="url(#paint24_linear)"/>
</g>
<g style="mix-blend-mode:screen" opacity="0.49">
<path style="mix-blend-mode:screen" opacity="0.49" d="M239.277 147.539C243.229 142.767 265.384 131.233 270.149 129.073L316.029 108.26L316.359 109.41L270.475 130.219C265.208 132.612 243.783 143.89 240.161 148.264C236.538 152.637 229.28 175.987 227.872 181.662L215.589 231.067L214.414 230.937L226.685 181.547C227.953 176.423 235.338 152.295 239.277 147.539Z" fill="url(#paint25_linear)"/>
</g>
<g style="mix-blend-mode:screen" opacity="0.47">
<path style="mix-blend-mode:screen" opacity="0.47" d="M235.061 144.134C238.862 139.546 261.212 127.981 266.041 125.788L311.969 104.961L312.32 106.129L266.367 126.986C261.2 129.326 239.361 140.778 235.953 144.893C232.545 149.007 225.189 172.798 223.806 178.364L211.524 227.804L210.328 227.656L222.61 178.225C223.883 173.043 231.256 148.727 235.061 144.134Z" fill="url(#paint26_linear)"/>
</g>
<g style="mix-blend-mode:screen" opacity="0.45">
<path style="mix-blend-mode:screen" opacity="0.45" d="M230.841 140.724C234.474 136.339 257.606 124.47 261.934 122.509L307.912 101.656L308.247 102.879L262.26 123.742C257.028 126.116 235.012 137.578 231.751 141.514C228.49 145.45 221.153 169.418 219.749 175.054L207.444 224.551L206.197 224.429L218.502 174.933C219.67 170.26 227.2 145.119 230.841 140.724Z" fill="url(#paint27_linear)"/>
</g>
<g style="mix-blend-mode:screen" opacity="0.43">
<path style="mix-blend-mode:screen" opacity="0.43" d="M226.624 137.319C230.105 133.117 253.445 121.21 257.825 119.223L303.852 98.356L304.195 99.6124L258.18 120.464C253.053 122.789 230.63 134.415 227.571 138.107C224.512 141.799 217.086 166.198 215.719 171.719L203.424 221.232L202.142 221.108L214.438 171.595C215.602 166.884 223.138 141.526 226.624 137.319Z" fill="url(#paint28_linear)"/>
</g>
<g style="mix-blend-mode:screen" opacity="0.41">
<path style="mix-blend-mode:screen" opacity="0.41" d="M222.409 133.914C225.879 129.727 250.539 117.372 253.723 115.941L299.793 95.0479L300.158 96.3485L254.074 117.222C248.883 119.58 226.282 131.216 223.37 134.73C220.458 138.244 213.064 162.831 211.663 168.411L199.323 218.006L197.999 217.863L210.352 168.279C211.2 164.862 218.932 138.111 222.409 133.914Z" fill="url(#paint29_linear)"/>
</g>
<g style="mix-blend-mode:screen" opacity="0.39">
<path style="mix-blend-mode:screen" opacity="0.39" d="M218.186 130.504C221.436 126.582 246.524 114.055 249.611 112.654L295.729 91.7478L296.085 93.0587L249.967 113.965C244.88 116.274 221.881 128.055 219.164 131.335C216.446 134.614 208.965 159.61 207.603 165.084L195.277 214.699L193.94 214.571L206.253 164.98C207.097 161.638 214.927 134.436 218.186 130.504Z" fill="url(#paint30_linear)"/>
</g>
<g style="mix-blend-mode:screen" opacity="0.37">
<path style="mix-blend-mode:screen" opacity="0.37" d="M213.97 127.1C217.065 123.366 242.378 110.789 245.508 109.372L291.67 88.4488L292.039 89.7967L245.877 110.72C240.725 113.053 217.565 124.86 215.003 127.951C212.441 131.042 204.968 156.231 203.575 161.758L191.234 211.42L189.858 211.286L202.187 161.64C203.027 158.276 210.871 130.839 213.97 127.1Z" fill="url(#paint31_linear)"/>
</g>
<g style="mix-blend-mode:screen" opacity="0.35">
<path style="mix-blend-mode:screen" opacity="0.35" d="M209.755 123.694C212.715 120.124 238.237 107.527 241.402 106.095L287.624 85.1514L287.997 86.5292L241.779 107.467C237.125 109.599 213.207 121.645 210.767 124.589C208.327 127.532 200.755 153.467 199.497 158.484L187.149 208.199L185.749 208.061L198.092 158.351C198.958 154.913 206.808 127.25 209.755 123.694Z" fill="url(#paint32_linear)"/>
</g>
<g style="mix-blend-mode:screen" opacity="0.33">
<path style="mix-blend-mode:screen" opacity="0.33" d="M205.543 120.293C208.44 116.798 235.49 103.633 237.301 102.816L283.554 81.8448L283.94 83.2509L237.687 104.222C233.008 106.332 208.881 118.433 206.597 121.188C204.313 123.943 196.732 150.1 195.478 155.147L183.106 204.892L181.671 204.752L194.039 155.011C194.516 153.051 202.637 123.798 205.543 120.293Z" fill="url(#paint33_linear)"/>
</g>
<g style="mix-blend-mode:screen" opacity="0.31">
<path style="mix-blend-mode:screen" opacity="0.31" d="M201.318 116.88C204.055 113.579 231.353 100.357 233.189 99.5261L279.474 78.5271L279.902 79.9954L233.618 100.994C229.013 103.066 204.526 115.292 202.428 117.823C200.329 120.354 192.67 146.927 191.453 151.85L179.053 201.632L177.584 201.489L189.984 151.707C190.44 149.712 198.572 120.192 201.318 116.88Z" fill="url(#paint34_linear)"/>
</g>
<g style="mix-blend-mode:screen" opacity="0.29">
<path style="mix-blend-mode:screen" opacity="0.29" d="M197.091 113.467C199.63 110.405 227.305 97.0544 229.054 96.2607L275.432 75.2358L275.835 76.7088L229.482 97.7118C224.826 99.8446 200.156 112.043 198.197 114.406C196.238 116.768 188.61 143.512 187.364 148.507L174.974 198.348L173.475 198.196L185.869 148.359C186.351 146.376 194.51 116.579 197.091 113.467Z" fill="url(#paint35_linear)"/>
</g>
<g style="mix-blend-mode:screen" opacity="0.27">
<path style="mix-blend-mode:screen" opacity="0.27" d="M192.875 110.07C195.24 107.217 223.171 93.7728 224.966 92.9665L271.37 71.9364L271.782 73.4342L225.378 94.4642C220.839 96.5239 195.779 108.875 193.993 111.028C192.207 113.182 184.532 140.306 183.315 145.196L170.91 195.075L169.377 194.93L181.782 145.042C182.276 143.096 190.509 112.922 192.875 110.07Z" fill="url(#paint36_linear)"/>
</g>
<g style="mix-blend-mode:screen" opacity="0.25">
<path style="mix-blend-mode:screen" opacity="0.25" d="M188.635 106.645C190.929 103.878 220.552 89.7849 220.853 89.6401L267.31 68.6346L267.731 70.1659L221.282 91.2046C216.674 93.2766 191.451 105.644 189.8 107.634C188.149 109.625 180.498 136.931 179.268 141.871L166.852 191.801L165.289 191.648L177.705 141.718C177.785 141.404 186.34 109.411 188.635 106.645Z" fill="url(#paint37_linear)"/>
</g>
<g style="mix-blend-mode:screen" opacity="0.24">
<path style="mix-blend-mode:screen" opacity="0.24" d="M184.437 103.255C186.554 100.703 216.466 86.5275 216.758 86.3929L263.253 65.3323L263.678 66.8934L217.187 87.9575C212.727 89.9729 187.211 102.41 185.611 104.252C184.099 106.162 176.421 133.762 175.221 138.554L162.794 188.524L161.201 188.372L173.628 138.401C173.704 138.083 182.307 105.823 184.437 103.255Z" fill="url(#paint38_linear)"/>
</g>
<g style="mix-blend-mode:screen" opacity="0.22">
<path style="mix-blend-mode:screen" opacity="0.22" d="M180.221 99.8493C182.186 97.4805 212.354 83.246 212.655 83.1098L259.19 62.0287L259.631 63.6217L213.088 84.7043C209.627 86.2638 183.115 99.061 181.408 100.866C179.939 102.855 172.103 131.517 171.177 135.238L158.735 185.255L157.103 185.097L169.55 135.074C169.63 134.76 178.256 102.218 180.221 99.8493Z" fill="url(#paint39_linear)"/>
</g>
<g style="mix-blend-mode:screen" opacity="0.2">
<path style="mix-blend-mode:screen" opacity="0.2" d="M176.004 96.4445C177.842 94.2287 208.245 79.9607 208.546 79.8245L255.128 58.73L255.574 60.3529L208.975 81.4417C205.509 83.0064 178.894 95.7483 177.187 97.4837C175.832 99.4396 168.041 128.179 167.115 131.909L154.657 181.973L153 181.81L165.458 131.746C165.551 131.434 174.174 98.6501 176.004 96.4445Z" fill="url(#paint40_linear)"/>
</g>
<g style="mix-blend-mode:screen" opacity="0.18">
<path style="mix-blend-mode:screen" opacity="0.18" d="M171.783 93.0349C173.447 91.0282 204.141 76.6864 204.438 76.5466L251.072 55.4248L251.526 57.0812L204.892 78.1943C201.425 79.7592 175.025 92.3327 173.025 94.0898C171.649 96.4023 164 124.884 163.078 128.601L150.614 178.709L148.922 178.544L161.387 128.435C161.467 128.112 170.109 95.0518 171.783 93.0349Z" fill="url(#paint41_linear)"/>
</g>
<g style="mix-blend-mode:screen" opacity="0.16">
<path style="mix-blend-mode:screen" opacity="0.16" d="M167.565 89.6284C169.069 87.8155 200.023 73.4011 200.328 73.2598L247.008 52.1249L247.454 53.7917L200.774 74.9353C197.429 76.448 170.957 88.9825 168.816 90.6906C167.508 93.1392 159.938 121.544 159.012 125.266L146.532 175.421L144.811 175.256L157.29 125.101C157.388 124.784 166.065 91.4361 167.565 89.6284Z" fill="url(#paint42_linear)"/>
</g>
<g style="mix-blend-mode:screen" opacity="0.14">
<path style="mix-blend-mode:screen" opacity="0.14" d="M163.345 86.2192C164.705 84.5797 195.912 70.1199 196.225 69.9771L242.95 48.8161L243.422 50.5395L196.697 71.6917C194.361 72.7641 167.03 85.5778 164.643 87.3211C163.402 89.9234 155.877 118.371 154.985 121.966L142.489 172.168L140.733 171.992L153.237 121.806C153.292 121.487 161.984 87.8586 163.345 86.2192Z" fill="url(#paint43_linear)"/>
</g>
<g style="mix-blend-mode:screen" opacity="0.12">
<path style="mix-blend-mode:screen" opacity="0.12" d="M159.128 82.8142C160.344 81.3483 191.803 66.8346 192.117 66.6917L238.89 45.5174L239.37 47.2656L192.597 68.4399C190.261 69.5124 163.047 82.2054 160.456 83.9415C159.223 86.8126 151.558 116.129 150.936 118.647L138.43 168.891L136.644 168.716L149.15 118.472C149.234 118.135 157.92 84.2699 159.128 82.8142Z" fill="url(#paint44_linear)"/>
</g>
<g style="mix-blend-mode:screen" opacity="0.1">
<path style="mix-blend-mode:screen" opacity="0.1" d="M154.912 79.4093C155.968 78.1374 187.697 63.5578 188.015 63.4099L234.84 42.2256L235.329 44.0073L188.495 65.2105C186.158 66.2831 159.083 78.8561 156.267 80.5844C155.063 83.6814 147.511 112.828 146.884 115.352L134.354 165.661L132.559 165.453L145.094 115.147C145.153 114.814 153.857 80.6813 154.912 79.4093Z" fill="url(#paint45_linear)"/>
</g>
<g style="mix-blend-mode:screen" opacity="0.08">
<path style="mix-blend-mode:screen" opacity="0.08" d="M150.69 75.9996C151.593 74.9114 183.583 60.2764 183.901 60.1284L230.756 38.9338L231.25 40.7454L184.398 61.9436C182.056 63.0215 155.103 75.4426 152.082 77.1898C150.917 80.5111 143.465 109.486 142.838 112.01L130.318 162.335L128.472 162.153L140.992 111.828C141.073 111.487 149.782 77.0928 150.69 75.9996Z" fill="url(#paint46_linear)"/>
</g>
<g style="mix-blend-mode:screen" opacity="0.06">
<path style="mix-blend-mode:screen" opacity="0.06" d="M146.473 72.5934C147.236 71.6737 179.473 56.99 179.804 56.8528L226.727 35.5934L227.229 37.4298L180.302 58.6856C178.965 59.2932 151.256 72.01 147.904 73.8074C146.734 77.4565 139.141 107.299 138.789 108.699L126.246 159.071L124.369 158.891L136.909 108.514C136.998 108.163 145.709 73.513 146.473 72.5934Z" fill="url(#paint47_linear)"/>
</g>
<g style="mix-blend-mode:screen" opacity="0.04">
<path style="mix-blend-mode:screen" opacity="0.04" d="M142.256 69.1887C142.519 68.8719 142.63 68.739 159.14 61.1466C167.259 57.4094 175.472 53.6817 175.692 53.5641L222.66 32.2962L223.174 34.1698L176.216 55.4187C174.764 56.0772 147.35 68.5981 143.739 70.4199C142.595 74.3349 135.101 103.971 134.754 105.366L122.199 155.789L120.284 155.601L132.826 105.194C132.886 104.974 135.101 96.1854 137.346 87.3958C141.883 69.6383 141.993 69.5055 142.256 69.1887Z" fill="url(#paint48_linear)"/>
</g>
<g style="mix-blend-mode:screen" opacity="0.02">
<path style="mix-blend-mode:screen" opacity="0.02" d="M138.03 65.7837C138.217 65.5589 138.429 65.3034 171.579 50.2825L218.594 29.0012L219.113 30.9047L172.107 52.1757C170.523 52.8968 143.435 65.2122 139.555 67.0599C138.428 71.2424 131.12 100.352 130.696 102.056L118.126 152.526L116.186 152.334L128.756 101.865C137.593 66.4321 137.843 66.0086 138.03 65.7837Z" fill="url(#paint49_linear)"/>
</g>
</g>
<defs>
<linearGradient id="paint0_linear" x1="-446.193" y1="-404.271" x2="-25086.8" y2="28492.6" gradientUnits="userSpaceOnUse">
<stop stop-color="#E400B7"/>
<stop offset="1" stop-color="#FFB803"/>
</linearGradient>
<linearGradient id="paint1_linear" x1="-643.593" y1="-576.488" x2="-25286.7" y2="28326.9" gradientUnits="userSpaceOnUse">
<stop stop-color="#E400B7"/>
<stop offset="1" stop-color="#FFB803"/>
</linearGradient>
<linearGradient id="paint2_linear" x1="-843.863" y1="-748.998" x2="-25497.3" y2="28169.6" gradientUnits="userSpaceOnUse">
<stop stop-color="#E400B7"/>
<stop offset="1" stop-color="#FFB803"/>
</linearGradient>
<linearGradient id="paint3_linear" x1="-1047.89" y1="-924.651" x2="-25711.9" y2="28009.9" gradientUnits="userSpaceOnUse">
<stop stop-color="#E400B7"/>
<stop offset="1" stop-color="#FFB803"/>
</linearGradient>
<linearGradient id="paint4_linear" x1="-1253.42" y1="-1103.66" x2="-25924.9" y2="27843.3" gradientUnits="userSpaceOnUse">
<stop stop-color="#E400B7"/>
<stop offset="1" stop-color="#FFB803"/>
</linearGradient>
<linearGradient id="paint5_linear" x1="-1462.04" y1="-1283.18" x2="-26142" y2="27676.9" gradientUnits="userSpaceOnUse">
<stop stop-color="#E400B7"/>
<stop offset="1" stop-color="#FFB803"/>
</linearGradient>
<linearGradient id="paint6_linear" x1="-1674.11" y1="-1467.66" x2="-26362.7" y2="27506.4" gradientUnits="userSpaceOnUse">
<stop stop-color="#E400B7"/>
<stop offset="1" stop-color="#FFB803"/>
</linearGradient>
<linearGradient id="paint7_linear" x1="-1886.9" y1="-1650.67" x2="-26583.7" y2="27336" gradientUnits="userSpaceOnUse">
<stop stop-color="#E400B7"/>
<stop offset="1" stop-color="#FFB803"/>
</linearGradient>
<linearGradient id="paint8_linear" x1="-2105.17" y1="-1838.26" x2="-26809.6" y2="27161" gradientUnits="userSpaceOnUse">
<stop stop-color="#E400B7"/>
<stop offset="1" stop-color="#FFB803"/>
</linearGradient>
<linearGradient id="paint9_linear" x1="-2321.04" y1="-2025.92" x2="-27038.6" y2="26991.5" gradientUnits="userSpaceOnUse">
<stop stop-color="#E400B7"/>
<stop offset="1" stop-color="#FFB803"/>
</linearGradient>
<linearGradient id="paint10_linear" x1="-2544.29" y1="-2217.71" x2="-27257.2" y2="26798.1" gradientUnits="userSpaceOnUse">
<stop stop-color="#E400B7"/>
<stop offset="1" stop-color="#FFB803"/>
</linearGradient>
<linearGradient id="paint11_linear" x1="-2769.79" y1="-2411.34" x2="-27496.3" y2="26623.7" gradientUnits="userSpaceOnUse">
<stop stop-color="#E400B7"/>
<stop offset="1" stop-color="#FFB803"/>
</linearGradient>
<linearGradient id="paint12_linear" x1="-2995.87" y1="-2607.55" x2="-27730.8" y2="26440.5" gradientUnits="userSpaceOnUse">
<stop stop-color="#E400B7"/>
<stop offset="1" stop-color="#FFB803"/>
</linearGradient>
<linearGradient id="paint13_linear" x1="-3228.05" y1="-2806.78" x2="-27971.5" y2="26255" gradientUnits="userSpaceOnUse">
<stop stop-color="#E400B7"/>
<stop offset="1" stop-color="#FFB803"/>
</linearGradient>
<linearGradient id="paint14_linear" x1="-3458.56" y1="-3004.62" x2="-28208.2" y2="26067.4" gradientUnits="userSpaceOnUse">
<stop stop-color="#E400B7"/>
<stop offset="1" stop-color="#FFB803"/>
</linearGradient>
<linearGradient id="paint15_linear" x1="-3693.21" y1="-3207.99" x2="-28451.3" y2="25877.2" gradientUnits="userSpaceOnUse">
<stop stop-color="#E400B7"/>
<stop offset="1" stop-color="#FFB803"/>
</linearGradient>
<linearGradient id="paint16_linear" x1="-3928.64" y1="-3409.94" x2="-28695.9" y2="25689" gradientUnits="userSpaceOnUse">
<stop stop-color="#E400B7"/>
<stop offset="1" stop-color="#FFB803"/>
</linearGradient>
<linearGradient id="paint17_linear" x1="-4172.63" y1="-3619.03" x2="-28943.5" y2="25487.8" gradientUnits="userSpaceOnUse">
<stop stop-color="#E400B7"/>
<stop offset="1" stop-color="#FFB803"/>
</linearGradient>
<linearGradient id="paint18_linear" x1="-4415.31" y1="-3829.11" x2="-29201.7" y2="25299.1" gradientUnits="userSpaceOnUse">
<stop stop-color="#E400B7"/>
<stop offset="1" stop-color="#FFB803"/>
</linearGradient>
<linearGradient id="paint19_linear" x1="-4661.77" y1="-4040.27" x2="-29452.5" y2="25096.4" gradientUnits="userSpaceOnUse">
<stop stop-color="#E400B7"/>
<stop offset="1" stop-color="#FFB803"/>
</linearGradient>
<linearGradient id="paint20_linear" x1="-4912.61" y1="-4255.09" x2="-29713.9" y2="24897.3" gradientUnits="userSpaceOnUse">
<stop stop-color="#E400B7"/>
<stop offset="1" stop-color="#FFB803"/>
</linearGradient>
<linearGradient id="paint21_linear" x1="-5160.75" y1="-4469.73" x2="-29971.3" y2="24696.5" gradientUnits="userSpaceOnUse">
<stop stop-color="#E400B7"/>
<stop offset="1" stop-color="#FFB803"/>
</linearGradient>
<linearGradient id="paint22_linear" x1="-5415.94" y1="-4688.17" x2="-30230.9" y2="24486.7" gradientUnits="userSpaceOnUse">
<stop stop-color="#E400B7"/>
<stop offset="1" stop-color="#FFB803"/>
</linearGradient>
<linearGradient id="paint23_linear" x1="-5672.19" y1="-4907.49" x2="-30492.5" y2="24276.7" gradientUnits="userSpaceOnUse">
<stop stop-color="#E400B7"/>
<stop offset="1" stop-color="#FFB803"/>
</linearGradient>
<linearGradient id="paint24_linear" x1="-5931.06" y1="-5131.08" x2="-30758.7" y2="24065.1" gradientUnits="userSpaceOnUse">
<stop stop-color="#E400B7"/>
<stop offset="1" stop-color="#FFB803"/>
</linearGradient>
<linearGradient id="paint25_linear" x1="-6193.64" y1="-5355.7" x2="-31027.7" y2="23851.2" gradientUnits="userSpaceOnUse">
<stop stop-color="#E400B7"/>
<stop offset="1" stop-color="#FFB803"/>
</linearGradient>
<linearGradient id="paint26_linear" x1="-6458.94" y1="-5582.57" x2="-31298.3" y2="23633.8" gradientUnits="userSpaceOnUse">
<stop stop-color="#E400B7"/>
<stop offset="1" stop-color="#FFB803"/>
</linearGradient>
<linearGradient id="paint27_linear" x1="-6725.82" y1="-5812.86" x2="-31583.8" y2="23428.3" gradientUnits="userSpaceOnUse">
<stop stop-color="#E400B7"/>
<stop offset="1" stop-color="#FFB803"/>
</linearGradient>
<linearGradient id="paint28_linear" x1="-6996.59" y1="-6044.28" x2="-31852.8" y2="23198.2" gradientUnits="userSpaceOnUse">
<stop stop-color="#E400B7"/>
<stop offset="1" stop-color="#FFB803"/>
</linearGradient>
<linearGradient id="paint29_linear" x1="-7271.29" y1="-6281.09" x2="-32145.1" y2="22985.3" gradientUnits="userSpaceOnUse">
<stop stop-color="#E400B7"/>
<stop offset="1" stop-color="#FFB803"/>
</linearGradient>
<linearGradient id="paint30_linear" x1="-7542.55" y1="-6512.91" x2="-32417.4" y2="22757.6" gradientUnits="userSpaceOnUse">
<stop stop-color="#E400B7"/>
<stop offset="1" stop-color="#FFB803"/>
</linearGradient>
<linearGradient id="paint31_linear" x1="-7822.59" y1="-6752.06" x2="-32702.9" y2="22528.1" gradientUnits="userSpaceOnUse">
<stop stop-color="#E400B7"/>
<stop offset="1" stop-color="#FFB803"/>
</linearGradient>
<linearGradient id="paint32_linear" x1="-8105.58" y1="-6995.79" x2="-33002.5" y2="22307.1" gradientUnits="userSpaceOnUse">
<stop stop-color="#E400B7"/>
<stop offset="1" stop-color="#FFB803"/>
</linearGradient>
<linearGradient id="paint33_linear" x1="-8385.86" y1="-7235.11" x2="-33283.9" y2="22072.1" gradientUnits="userSpaceOnUse">
<stop stop-color="#E400B7"/>
<stop offset="1" stop-color="#FFB803"/>
</linearGradient>
<linearGradient id="paint34_linear" x1="-8678.28" y1="-7484.59" x2="-33584.9" y2="21836.2" gradientUnits="userSpaceOnUse">
<stop stop-color="#E400B7"/>
<stop offset="1" stop-color="#FFB803"/>
</linearGradient>
<linearGradient id="paint35_linear" x1="-8964.13" y1="-7730.66" x2="-33879" y2="21602.7" gradientUnits="userSpaceOnUse">
<stop stop-color="#E400B7"/>
<stop offset="1" stop-color="#FFB803"/>
</linearGradient>
<linearGradient id="paint36_linear" x1="-9253.56" y1="-7977.62" x2="-34177.7" y2="21369.6" gradientUnits="userSpaceOnUse">
<stop stop-color="#E400B7"/>
<stop offset="1" stop-color="#FFB803"/>
</linearGradient>
<linearGradient id="paint37_linear" x1="-9556.12" y1="-8235.52" x2="-34485.9" y2="21121.9" gradientUnits="userSpaceOnUse">
<stop stop-color="#E400B7"/>
<stop offset="1" stop-color="#FFB803"/>
</linearGradient>
<linearGradient id="paint38_linear" x1="-9845.29" y1="-8484.35" x2="-34783.2" y2="20885.2" gradientUnits="userSpaceOnUse">
<stop stop-color="#E400B7"/>
<stop offset="1" stop-color="#FFB803"/>
</linearGradient>
<linearGradient id="paint39_linear" x1="-10145.7" y1="-8740.48" x2="-35092" y2="20642" gradientUnits="userSpaceOnUse">
<stop stop-color="#E400B7"/>
<stop offset="1" stop-color="#FFB803"/>
</linearGradient>
<linearGradient id="paint40_linear" x1="-10447.3" y1="-8997.52" x2="-35399.8" y2="20395.3" gradientUnits="userSpaceOnUse">
<stop stop-color="#E400B7"/>
<stop offset="1" stop-color="#FFB803"/>
</linearGradient>
<linearGradient id="paint41_linear" x1="-10753.8" y1="-9260.76" x2="-35714.7" y2="20145.2" gradientUnits="userSpaceOnUse">
<stop stop-color="#E400B7"/>
<stop offset="1" stop-color="#FFB803"/>
</linearGradient>
<linearGradient id="paint42_linear" x1="-11053.9" y1="-9516.64" x2="-36023" y2="19901.4" gradientUnits="userSpaceOnUse">
<stop stop-color="#E400B7"/>
<stop offset="1" stop-color="#FFB803"/>
</linearGradient>
<linearGradient id="paint43_linear" x1="-11372.6" y1="-9790.07" x2="-36350.4" y2="19641.6" gradientUnits="userSpaceOnUse">
<stop stop-color="#E400B7"/>
<stop offset="1" stop-color="#FFB803"/>
</linearGradient>
<linearGradient id="paint44_linear" x1="-11684.7" y1="-10055.8" x2="-36668.6" y2="19386.2" gradientUnits="userSpaceOnUse">
<stop stop-color="#E400B7"/>
<stop offset="1" stop-color="#FFB803"/>
</linearGradient>
<linearGradient id="paint45_linear" x1="-12005" y1="-10328.5" x2="-36997.4" y2="19126.7" gradientUnits="userSpaceOnUse">
<stop stop-color="#E400B7"/>
<stop offset="1" stop-color="#FFB803"/>
</linearGradient>
<linearGradient id="paint46_linear" x1="-12320" y1="-10598.7" x2="-37313.5" y2="18860.8" gradientUnits="userSpaceOnUse">
<stop stop-color="#E400B7"/>
<stop offset="1" stop-color="#FFB803"/>
</linearGradient>
<linearGradient id="paint47_linear" x1="-12640" y1="-10871.2" x2="-37651" y2="18611.5" gradientUnits="userSpaceOnUse">
<stop stop-color="#E400B7"/>
<stop offset="1" stop-color="#FFB803"/>
</linearGradient>
<linearGradient id="paint48_linear" x1="-12965" y1="-11147.7" x2="-37980.3" y2="18343.1" gradientUnits="userSpaceOnUse">
<stop stop-color="#E400B7"/>
<stop offset="1" stop-color="#FFB803"/>
</linearGradient>
<linearGradient id="paint49_linear" x1="-13291.6" y1="-11427.6" x2="-38315.2" y2="18076" gradientUnits="userSpaceOnUse">
<stop stop-color="#E400B7"/>
<stop offset="1" stop-color="#FFB803"/>
</linearGradient>
</defs>
</svg>
