<svg width="32" height="25" viewBox="0 0 32 25" fill="none" xmlns="http://www.w3.org/2000/svg">
<path d="M24.9898 17.4C25.7898 17.6 26.5898 17.6667 27.5231 17.4C29.7231 16.8667 31.3898 15 31.5898 12.8C31.7898 10.6 30.6564 8.60003 28.9231 7.60003C28.8564 7.53337 28.7898 7.4667 28.7898 7.40003C29.0564 6.2667 28.9898 5.00003 28.1898 3.6667C27.3898 2.2667 26.0564 1.33337 24.4564 1.0667C23.4564 0.933366 22.5231 1.0667 21.6564 1.40003C21.5231 1.4667 21.4564 1.60003 21.5898 1.73337C22.5898 2.8667 23.2564 4.4667 23.2564 6.2667C23.2564 6.33337 23.2564 6.40003 23.2564 6.4667C23.2564 6.53337 23.2564 6.60003 23.3231 6.60003C24.9898 8.00003 25.9231 10 25.9231 12.2C25.9231 14.8 24.5898 17 22.5898 18.3333C22.5231 18.4 22.4564 18.4667 22.4564 18.6V22.6667C22.4564 22.8 22.3898 22.8667 22.2564 22.8667H17.3898C17.2564 22.8667 17.1898 22.8 17.1898 22.6667V17.8C17.1898 17.5333 17.3898 17.4 17.6564 17.4667C18.3898 17.6 19.2564 17.6 20.0564 17.4C22.1898 16.8 23.7231 15 23.9231 12.8C24.1231 10.6 22.9898 8.6667 21.2564 7.6667C21.1898 7.60003 21.1231 7.53337 21.1231 7.40003C21.3231 6.4667 21.3231 5.40003 20.8564 4.33337C19.9898 2.2667 17.9898 0.866699 15.7231 1.00003C12.8564 1.13337 10.5898 3.4667 10.5898 6.33337C10.5898 6.73337 10.6564 7.0667 10.7231 7.4667C10.7231 7.60003 10.7231 7.6667 10.5898 7.73337C8.85644 8.73337 7.72311 10.6667 7.92311 12.8667C8.12311 15.1333 9.78978 16.9333 11.9898 17.4667C12.7898 17.6667 13.5231 17.6667 14.2564 17.5333C14.4564 17.4667 14.7231 17.6667 14.7231 17.8667V22.7333C14.7231 22.8667 14.6564 22.9333 14.5231 22.9333H9.65644C9.52311 22.9333 9.45644 22.8667 9.45644 22.7333V18.6C9.45644 18.5333 9.38978 18.4667 9.32311 18.4C7.32311 17.0667 5.92311 14.8 5.92311 12.2C5.92311 10 6.85644 8.00003 8.45644 6.6667C8.52311 6.60003 8.58978 6.53337 8.58978 6.40003C8.58978 6.33337 8.58978 6.2667 8.58978 6.20003C8.58978 4.4667 9.18978 2.8667 10.2564 1.60003C10.3231 1.4667 10.3231 1.33337 10.1898 1.2667C9.58978 1.0667 8.98978 0.933366 8.32311 0.866699C5.92311 0.866699 3.85644 2.4667 3.18978 4.73337C2.92311 5.60003 2.92311 6.4667 3.12311 7.2667C3.12311 7.40003 3.12311 7.4667 2.98978 7.53337C1.25644 8.53337 0.123112 10.4667 0.323112 12.6667C0.523112 14.6667 2.25644 16.7333 4.18978 17.2667C5.12311 17.5333 5.98978 17.5333 6.78978 17.3333C6.92311 17.2667 7.05644 17.4 7.05644 17.5333V22.6C7.05644 22.7333 6.98978 22.8 6.85644 22.8H1.72311C1.58978 22.8 1.52311 22.8667 1.52311 23V24.7333C1.52311 24.8667 1.58978 24.9333 1.72311 24.9333H31.3231C31.4564 24.9333 31.5231 24.8667 31.5231 24.7333V23C31.5231 22.8667 31.4564 22.8 31.3231 22.8H24.9898C24.8564 22.8 24.7898 22.7333 24.7898 22.6V17.4C24.7898 17.4 24.9231 17.3333 24.9898 17.4Z" fill="url(#paint0_linear)"/>
<defs>
<linearGradient id="paint0_linear" x1="15.9564" y1="0.866699" x2="15.9564" y2="24.9333" gradientUnits="userSpaceOnUse">
<stop stop-color="#5BCD83"/>
<stop offset="1" stop-color="#29B390"/>
</linearGradient>
</defs>
</svg>
